<?xml version="1.0" encoding="UTF-8" standalone="no"?>
<!-- Created with Inkscape (http://www.inkscape.org/) -->

<svg
   xmlns:dc="http://purl.org/dc/elements/1.1/"
   xmlns:cc="http://creativecommons.org/ns#"
   xmlns:rdf="http://www.w3.org/1999/02/22-rdf-syntax-ns#"
   xmlns:svg="http://www.w3.org/2000/svg"
   xmlns="http://www.w3.org/2000/svg"
   xmlns:sodipodi="http://sodipodi.sourceforge.net/DTD/sodipodi-0.dtd"
   xmlns:inkscape="http://www.inkscape.org/namespaces/inkscape"
   id="svg3355"
   version="1.1"
   inkscape:version="0.91 r13725"
   xml:space="preserve"
   width="725"
   height="214"
   viewBox="0 0 725 214"
   sodipodi:docname="logo.svg"><metadata
     id="metadata3361"><rdf:RDF><cc:Work
         rdf:about=""><dc:format>image/svg+xml</dc:format><dc:type
           rdf:resource="http://purl.org/dc/dcmitype/StillImage" /><dc:title></dc:title></cc:Work></rdf:RDF></metadata><defs
     id="defs3359"><clipPath
       clipPathUnits="userSpaceOnUse"
       id="clipPath3371"><path
         d="m 35,780 0,-768 542,0 0,768 -542,0 z"
         id="path3373"
         inkscape:connector-curvature="0" /></clipPath><clipPath
       clipPathUnits="userSpaceOnUse"
       id="clipPath3377"><path
         d="m 35,781 0,-769.32275 543.9695,0 0,769.32275 L 35,781 Z"
         id="path3379"
         inkscape:connector-curvature="0" /></clipPath><clipPath
       clipPathUnits="userSpaceOnUse"
       id="clipPath3383"><path
         d="m 11.33862,11.33862 589.3228,0 0,769.3228 -589.3228,0 0,-769.3228 z"
         id="path3385"
         inkscape:connector-curvature="0" /></clipPath></defs><sodipodi:namedview
     pagecolor="#ffffff"
     bordercolor="#666666"
     borderopacity="1"
     objecttolerance="10"
     gridtolerance="10"
     guidetolerance="10"
     inkscape:pageopacity="0"
     inkscape:pageshadow="2"
     inkscape:window-width="1320"
     inkscape:window-height="777"
     id="namedview3357"
     showgrid="false"
     inkscape:zoom="0.65555556"
     inkscape:cx="382.5"
     inkscape:cy="250.9322"
     inkscape:window-x="0"
     inkscape:window-y="0"
     inkscape:window-maximized="0"
     inkscape:current-layer="g3363" /><g
     id="g3363"
     inkscape:groupmode="layer"
     inkscape:label="STICKERS_STENCILS_MV"
     transform="matrix(1.25,0,0,-1.25,0,214)"><g
       id="g3365" /><g
       id="g3367"
       transform="matrix(0,0.74967361,-0.74967361,0,585.45062,-155.5465)"><g
         id="g3369"
         clip-path="url(#clipPath3371)"><g
           id="g3375"
           clip-path="url(#clipPath3377)"><g
             id="g3381"
             clip-path="url(#clipPath3383)"><path
               d="m 221.6731,708.7737 0,58.3903 199.827,0 0,-58.3044 -16.3214,0 0,41.9848 -167.186,0 0,-42.0707 -16.3196,0 z"
               style="fill:#231f20;fill-opacity:1;fill-rule:nonzero;stroke:none"
               id="path3387"
               inkscape:connector-curvature="0" /><path
               d="m 221.6731,20.17225 0,58.30528 16.3214,0 0,-41.98565 167.186,0 0,42.07246 16.3178,0 0,-58.39209 -199.8252,0 z"
               style="fill:#231f20;fill-opacity:1;fill-rule:nonzero;stroke:none"
               id="path3389"
               inkscape:connector-curvature="0" /><path
               d="m 347.6161,680.4623 -8.2745,0 0,-0.2376 c 3.1527,-2.2041 5.5953,-4.8632 7.3315,-7.9766 1.7316,-3.1105 2.5979,-6.679 2.5979,-10.697 0,-3.8589 -0.7511,-7.3881 -2.2452,-10.5809 -1.4977,-3.1873 -4.135,-5.6144 -7.9181,-7.2657 2.6765,-1.8102 5.0424,-4.2738 7.0902,-7.3871 2.0469,-3.1106 3.0731,-6.796 3.0731,-11.0516 0,-3.2321 -0.3938,-6.2248 -1.1815,-8.9836 -0.7877,-2.756 -2.0515,-5.1191 -3.7823,-7.0884 -1.7325,-1.9692 -3.9988,-3.5081 -6.7977,-4.6138 -2.7972,-1.1011 -6.1627,-1.6503 -10.1022,-1.6503 l -40.8991,0 0,16.7802 34.6341,0 c 2.0478,0 3.9769,0.0795 5.7899,0.2357 1.8139,0.159 3.3884,0.5922 4.7289,1.2995 1.3387,0.7118 2.4015,1.7563 3.1919,3.1325 0.7859,1.3798 1.1825,3.2513 1.1825,5.6144 0,2.3631 -0.456,4.2766 -1.3598,5.7323 -0.9065,1.463 -2.088,2.6016 -3.5455,3.4286 -1.4594,0.827 -3.117,1.3798 -4.9675,1.6549 -1.8495,0.275 -3.7228,0.4149 -5.6107,0.4149 l -34.0438,0 0,16.7811 34.2777,0 c 1.813,0 3.605,0.0429 5.3768,0.1188 1.7756,0.0795 3.4076,0.4121 4.9081,1.0042 1.4941,0.5922 2.6984,1.5782 3.6049,2.9589 0.9038,1.3762 1.3598,3.4058 1.3598,6.0832 0,0.7886 -0.1782,1.8349 -0.5355,3.1325 -0.3527,1.3004 -1.0216,2.5605 -2.0058,3.785 -0.9887,1.2227 -2.4042,2.2653 -4.2556,3.1325 -1.8532,0.8645 -4.2748,1.3004 -7.2693,1.3004 l -35.4611,0 0,16.7811 61.1079,0 0,-15.8381 z m -61.1079,-132.1406 8.5139,0 0,0.3545 c -3.5483,2.1273 -6.1097,4.887 -7.6832,8.2754 -1.5764,3.3884 -2.3631,6.8536 -2.3631,10.3982 0,4.4932 0.5903,8.1776 1.7718,11.0506 1.1816,2.8785 2.8538,5.1429 5.0223,6.7978 2.1666,1.6558 4.8066,2.8182 7.919,3.4871 3.1124,0.668 6.5611,1.0052 10.3406,1.0052 l 37.5866,0 0,-16.7848 -34.5144,0 c -5.0414,0 -8.8026,-0.7849 -11.2854,-2.3631 -2.4801,-1.5754 -3.7211,-4.3744 -3.7211,-8.3914 0,-4.5709 1.3561,-7.8798 4.0765,-9.9285 2.7186,-2.0479 7.1898,-3.0741 13.4138,-3.0741 l 32.0306,0 0,-16.7838 -61.1079,0 0,15.9569 z m 0,-45.9781 0,16.7838 84.3907,0 0,-16.7838 -84.3907,0 z m 61.1079,-46.8005 -11.2279,0 0,12.2897 -30.2579,0 c -2.8373,0 -4.728,-0.4696 -5.6738,-1.4191 -0.9458,-0.943 -1.4173,-2.8337 -1.4173,-5.672 0,-0.9439 0.0393,-1.8504 0.1179,-2.7176 0.0767,-0.8663 0.1964,-1.6942 0.3536,-2.481 l -13.0025,0 c -0.2312,1.4155 -0.392,2.9945 -0.4706,4.7262 -0.0768,1.7362 -0.1179,3.4304 -0.1179,5.0817 0,2.6016 0.1782,5.0643 0.53,7.3881 0.3573,2.3256 1.0445,4.3743 2.0707,6.1453 1.0225,1.7737 2.4801,3.1746 4.3726,4.1944 1.8915,1.0262 4.3725,1.5379 7.4456,1.5379 l 36.0496,0 0,10.1661 11.2279,0 0,-10.1661 18.3227,0 0,-16.7839 -18.3227,0 0,-12.2897 z m 23.2865,-8.5084 0,-16.7839 -13.8295,0 0,16.7839 13.8295,0 z m -84.3944,-16.7839 0,16.7839 61.1079,0 0,-16.7839 -61.1079,0 z m 66.1905,-22.3398 0,-8.8648 17.9654,0 0,8.8648 -17.9654,0 z m -66.1905,-45.385 61.1079,20.9207 0,-17.6118 -41.7215,-12.8828 0,-0.2358 41.7215,-12.8819 0,-16.6687 -61.1079,20.6858 0,18.6745 z m 23.3477,-61.934 c -2.3265,-0.4706 -4.4146,-1.2756 -6.2669,-2.4216 -1.8532,-1.1404 -3.329,-2.661 -4.4319,-4.5516 -1.103,-1.8898 -1.6522,-4.2547 -1.6522,-7.0884 0,-2.8383 0.5492,-5.2206 1.6522,-7.1523 1.1029,-1.9291 2.5787,-3.467 4.4319,-4.6093 1.8523,-1.1422 3.9404,-1.9509 6.2669,-2.4206 2.3211,-0.4761 4.707,-0.7119 7.1478,-0.7119 2.4417,0 4.8459,0.2358 7.2126,0.7119 2.3622,0.4697 4.4475,1.2784 6.2633,2.4206 1.8111,1.1423 3.2896,2.6802 4.4301,4.6093 1.145,1.9317 1.717,4.314 1.717,7.1523 0,2.8337 -0.572,5.1986 -1.717,7.0884 -1.1405,1.8906 -2.619,3.4112 -4.4301,4.5516 -1.8158,1.146 -3.9011,1.951 -6.2633,2.4216 -2.3667,0.4734 -4.7709,0.711 -7.2126,0.711 -2.4408,0 -4.8267,-0.2376 -7.1478,-0.711 m 20.4473,15.2514 c 3.975,-1.4995 7.3643,-3.6232 10.1624,-6.3847 2.7972,-2.7588 4.9665,-6.0677 6.5008,-9.9303 1.5389,-3.8581 2.3046,-8.1905 2.3046,-12.998 0,-4.8048 -0.7657,-9.1636 -2.3046,-13.0628 -1.5343,-3.902 -3.7036,-7.2282 -6.5008,-9.9843 -2.7981,-2.7615 -6.1874,-4.8888 -10.1624,-6.3838 -3.9815,-1.4959 -8.4134,-2.247 -13.2995,-2.247 -4.8861,0 -9.2962,0.7511 -13.2365,2.247 -3.9403,1.495 -7.3104,3.6223 -10.1048,6.3838 -2.799,2.7561 -4.9464,6.0823 -6.4433,9.9843 -1.494,3.8992 -2.2433,8.258 -2.2433,13.0628 0,4.8075 0.7493,9.1399 2.2433,12.998 1.4969,3.8626 3.6443,7.1715 6.4433,9.9303 2.7944,2.7615 6.1645,4.8852 10.1048,6.3847 3.9403,1.4959 8.3504,2.2434 13.2365,2.2434 4.8861,0 9.318,-0.7475 13.2995,-2.2434 m 6.3235,-101.0576 c 0,2.6793 -0.6141,4.9263 -1.8331,6.7393 -1.2217,1.8112 -2.7971,3.2879 -4.7289,4.4301 -1.9327,1.1423 -4.0564,1.9501 -6.3829,2.4234 -2.3229,0.4734 -4.6303,0.7046 -6.9121,0.7046 -2.2068,0 -4.4557,-0.2312 -6.7402,-0.7046 -2.2854,-0.4733 -4.3543,-1.2391 -6.2047,-2.3073 -1.8495,-1.0628 -3.3683,-2.5011 -4.548,-4.3141 -1.1816,-1.8102 -1.7719,-4.018 -1.7719,-6.6141 0,-4.0217 1.1203,-7.1149 3.3656,-9.2815 2.247,-2.1648 5.2598,-3.5264 9.043,-4.0783 l 0,-16.1908 c -8.1164,1.1048 -14.3011,4.251 -18.5576,9.4533 -4.2565,5.2032 -6.3801,11.8603 -6.3801,19.9776 0,4.569 0.7639,8.7652 2.3037,12.5858 1.537,3.8252 3.6808,7.0729 6.4414,9.7503 2.7578,2.6811 6.0466,4.7692 9.8681,6.2651 3.8216,1.4986 8.0159,2.2433 12.5904,2.2433 4.7262,0 9.118,-0.6871 13.1753,-2.067 4.0573,-1.3762 7.5644,-3.4076 10.5178,-6.0841 2.9589,-2.6793 5.2617,-5.9489 6.9166,-9.8115 1.6558,-3.8581 2.4819,-8.2718 2.4819,-13.2356 0,-3.6268 -0.4715,-7.1139 -1.4164,-10.4658 -0.9476,-3.3445 -2.3859,-6.3381 -4.314,-8.9772 -1.9318,-2.6418 -4.336,-4.7874 -7.2118,-6.445 -2.8757,-1.6549 -6.2833,-2.6007 -10.2218,-2.8365 l 0,16.4275 c 7.0116,1.1084 10.5197,5.2434 10.5197,12.4131 m -7.803,-54.7213 c 3.3108,-0.3181 5.6739,-1.4192 7.093,-3.3126 1.4191,-1.8897 2.1246,-4.4904 2.1246,-7.7993 0,-1.4959 -0.0996,-2.8968 -0.2933,-4.198 -0.1965,-1.3013 -0.5904,-2.4417 -1.1816,-3.425 -0.5903,-0.985 -1.4191,-1.7737 -2.4819,-2.3631 -1.0664,-0.5921 -2.5047,-0.8882 -4.3141,-0.8882 -1.7344,-0.0786 -3.0548,0.4332 -3.9595,1.538 -0.9065,1.1029 -1.5946,2.5988 -2.0697,4.4886 -0.4725,1.8924 -0.8261,4.0609 -1.0646,6.5026 -0.2367,2.4444 -0.552,4.9272 -0.9431,7.4457 -0.3966,2.5221 -0.9284,5.0241 -1.5973,7.5069 -0.6698,2.481 -1.675,4.6887 -3.0137,6.6177 -1.3406,1.9327 -3.1325,3.5054 -5.3759,4.7299 -2.2489,1.2208 -5.1055,1.8313 -8.5715,1.8313 -3.1508,0 -5.8703,-0.5319 -8.153,-1.5974 -2.2881,-1.0618 -4.1797,-2.544 -5.6738,-4.4319 -1.4977,-1.8934 -2.6007,-4.0975 -3.3107,-6.6196 -0.7091,-2.5203 -1.0618,-5.2389 -1.0618,-8.1566 0,-3.7823 0.5491,-7.4814 1.6521,-11.1082 1.1048,-3.6251 3.0348,-6.7768 5.7935,-9.4579 -1.0262,-0.0768 -2.0323,-0.2138 -3.0128,-0.4121 -0.9905,-0.1947 -1.951,-0.4515 -2.9004,-0.7695 l 0,-17.0159 c 1.2601,0.7877 3.1545,1.3369 5.6738,1.6512 2.5239,0.3171 5.1639,0.4725 7.919,0.4725 l 31.795,0 c 3.7054,0 6.6808,0.8288 8.9242,2.4828 2.2461,1.6549 3.9979,3.7822 5.2589,6.3847 1.2592,2.5998 2.11,5.4755 2.5422,8.6254 0.4341,3.1536 0.6497,6.2641 0.6497,9.3382 0,3.3893 -0.3344,6.7585 -1.0042,10.1048 -0.6717,3.3482 -1.7938,6.3647 -3.3692,9.0421 -1.5764,2.6775 -3.6644,4.888 -6.2651,6.6215 -2.597,1.7307 -5.8712,2.7185 -9.8088,2.9552 l 0,-16.7838 z m -18.6754,-21.9862 c -0.943,0 -2.2068,0.1015 -3.7822,0.2961 -1.5763,0.2001 -3.1325,0.7301 -4.6677,1.5937 -1.5361,0.8708 -2.8566,2.2077 -3.9605,4.0207 -1.1029,1.8139 -1.6539,4.3744 -1.6539,7.6805 0,1.3433 0.1197,2.6409 0.3554,3.9011 0.2349,1.2619 0.6497,2.3631 1.2401,3.3088 0.5912,0.9477 1.399,1.6961 2.4215,2.2471 1.0262,0.5538 2.2846,0.8279 3.7823,0.8279 1.5763,0 2.8766,-0.2741 3.9019,-0.8279 1.0226,-0.551 1.8733,-1.2775 2.5413,-2.184 0.6689,-0.9074 1.2008,-1.9711 1.5937,-3.1919 0.3938,-1.2236 0.71,-2.4627 0.9485,-3.7247 0.233,-1.3405 0.4295,-2.6783 0.5903,-4.0189 0.1554,-1.3369 0.3528,-2.6199 0.5913,-3.8444 0.2376,-1.2172 0.5309,-2.3631 0.8873,-3.4249 0.3536,-1.0618 0.8443,-1.951 1.4758,-2.6592 l -6.2651,0 z m -23.6401,-47.03989 0,16.78199 84.3907,0 0,-16.78199 -84.3907,0 z"
               style="fill:#231f20;fill-opacity:1;fill-rule:nonzero;stroke:none"
               id="path3391"
               inkscape:connector-curvature="0" /></g></g></g></g></g></svg>